<svg xmlns="http://www.w3.org/2000/svg" height="1200" width="1600" version="1.1" xmlns:xlink="http://www.w3.org/1999/xlink" xmlns:svgjs="http://svgjs.com/svgjs"><rect fill="#f3ebe9" width="1600" height="1200"></rect><g><path d="M1350.81 308.44C1344.18 302.43 1333.94 302.91 1327.93 309.54L1260.59 383.65 1260.6 383.66 1260.59 383.65 1260.55 383.84 1256.15 399.31 1250.7 418.61 1269.37 411.28 1284.35 405.48 1284.57 405.38 1284.54 405.35 1351.9 331.32C1357.92 324.7 1357.43 314.46 1350.81 308.44Z" fill="#338fff00" opacity="0" stroke-width="4" stroke="#ffffff00"></path><path d="M1325.59 289.96C1317.85 285.47 1307.94 288.08 1303.44 295.81L1253.06 382.35 1281.01 398.6 1331.44 312.11C1335.93 304.37 1333.32 294.46 1325.59 289.96Z" fill="#338fff" opacity="1" stroke-width="4" stroke="#000000"></path><path d="M1301.83 298.61L1296.4 307.93 1324.36 324.2 1329.78 314.89 1301.83 298.61Z" fill="#3c2c5b" opacity="1" stroke-width="4" stroke="#000000"></path><path d="M1281.06 398.6L1253.06 382.35V382.55L1252 398.6 1267.42 407.54 1280.86 398.74 1281.06 398.6Z" fill="#bfbfbf" opacity="1" stroke-width="4" stroke="#000000"></path><path d="M1250.7 418.61L1267.42 407.54 1252 398.6 1250.7 418.61Z" fill="#000000" opacity="1" stroke-width="4" stroke="#000000"></path><path d="M1303.88 312.3L1260.8 386.22" stroke="#000000" stroke-width="4" stroke-linecap="round" stroke-linejoin="round" opacity="1" fill="none"></path><path d="M1316.88 319.89L1273.85 393.81" stroke="#000000" stroke-width="4" stroke-linecap="round" stroke-linejoin="round" opacity="1" fill="none"></path></g><g><path d="M1311.37 957.77L1196.63 915.39C1196.49 915.39 1196.35 915.39 1196.49 915.53L1235.77 1031.4C1235.77 1031.54 1235.91 1031.54 1236.05 1031.4L1250.83 997.89C1250.83 997.75 1250.97 997.75 1251.11 997.89L1277.58 1025.06H1277.72L1304.19 999.44V999.3L1277.72 972.13C1277.72 971.99 1277.72 971.99 1277.72 971.84L1311.37 958.19C1311.37 958.05 1311.37 957.91 1311.37 957.77Z" fill="#338fff00" opacity="0" stroke-width="4" stroke="#ffffff00"></path><path d="M1311.37 928.77L1196.63 886.39C1196.49 886.39 1196.35 886.39 1196.49 886.53L1235.77 1002.39C1235.77 1002.54 1235.91 1002.54 1236.05 1002.39L1250.83 968.89C1250.83 968.75 1250.97 968.75 1251.11 968.89L1277.58 996.06H1277.72L1304.19 970.44V970.3L1277.72 943.13C1277.72 942.98 1277.72 942.98 1277.72 942.84L1311.37 929.19C1311.37 928.91 1311.37 928.77 1311.37 928.77Z" fill="#338fff" opacity="1" stroke-width="4" stroke="#000000"></path></g><g><path d="M883.28 797.48H1100.56C1115.69 797.48 1127.92 809.75 1127.92 824.84V1042.11C1127.92 1057.25 1115.64 1069.47 1100.56 1069.47H883.28C868.15 1069.47 855.92 1057.2 855.92 1042.11V824.89C855.87 809.75 868.15 797.48 883.28 797.48Z" fill="#cecece" opacity="1" stroke-width="4" stroke="#000000"></path></g><g><path d="M1121.55 495.75H1404.45C1426.85 495.75 1444.95 513.85 1444.95 536.25V804.75C1444.95 827.15 1426.85 845.25 1404.45 845.25H1121.55C1099.15 845.25 1081.05 827.15 1081.05 804.75V536.25C1080.95 513.85 1099.15 495.75 1121.55 495.75Z" fill="#ffffff" opacity="1" stroke-width="4" stroke="#000000"></path><path d="M1231.45 809.75C1236.7 809.75 1240.95 805.5 1240.95 800.25 1240.95 795 1236.7 790.75 1231.45 790.75 1226.2 790.75 1221.95 795 1221.95 800.25 1221.95 805.5 1226.2 809.75 1231.45 809.75Z" fill="#9e76dd" opacity="1" stroke-width="4" stroke="#000000"></path><path d="M1294.45 809.75C1299.7 809.75 1303.95 805.5 1303.95 800.25 1303.95 795 1299.7 790.75 1294.45 790.75 1289.2 790.75 1284.95 795 1284.95 800.25 1284.95 805.5 1289.2 809.75 1294.45 809.75Z" fill="#9e76dd" opacity="1" stroke-width="4" stroke="#000000"></path><path d="M1263.45 809.75C1268.7 809.75 1272.95 805.5 1272.95 800.25 1272.95 795 1268.7 790.75 1263.45 790.75 1258.2 790.75 1253.95 795 1253.95 800.25 1253.95 805.5 1258.2 809.75 1263.45 809.75Z" fill="#231f20" opacity="1" stroke-width="4" stroke="#000000"></path></g><g><path d="M1309.12 730.2L1268.21 743.88C1259.34 746.84 1249.6 742.03 1246.64 733.16L1206.59 613.62C1203.63 604.75 1208.44 595.01 1217.31 592.05L1258.23 578.37C1267.1 575.42 1276.84 580.22 1279.79 589.1L1319.85 708.64C1322.93 717.63 1318.12 727.24 1309.12 730.2Z" fill="#ffc930" opacity="1" stroke-width="4" stroke="#000000"></path><path d="M1276.96 657.37L1249.97 666.37C1244.8 668.09 1239.25 665.26 1237.52 660.2L1223.23 617.44C1221.5 612.26 1224.34 606.72 1229.39 604.99L1256.38 596C1261.56 594.27 1267.1 597.11 1268.83 602.16L1283.12 644.8C1284.85 649.98 1282.14 655.64 1276.96 657.37Z" stroke="#000000" stroke-width="4" stroke-linecap="round" stroke-linejoin="round" opacity="1" fill="none"></path><path d="M1275.85 720.71C1287.96 720.71 1297.79 710.89 1297.79 698.78 1297.79 686.66 1287.96 676.84 1275.85 676.84 1263.74 676.84 1253.91 686.66 1253.91 698.78 1253.91 710.89 1263.74 720.71 1275.85 720.71Z" fill="#3c2c5b" opacity="1" stroke-width="4" stroke="#000000"></path></g><g><path d="M203.86 486.97H406.61C423.98 486.97 438 501.06 438 518.36V721.11C438 738.48 423.92 752.5 406.61 752.5H203.86C186.5 752.5 172.47 738.42 172.47 721.11V518.36C172.47 501.06 186.56 486.97 203.86 486.97Z" fill="#ffffff" opacity="1" stroke-width="4" stroke="#000000"></path></g><g><path d="M362.31 677.89H236.16C228.93 677.89 224.12 672.04 225.37 664.81L240.23 580.64C241.49 573.4 248.38 567.55 255.61 567.55H381.8C389.04 567.55 393.85 573.4 392.59 580.64L377.73 664.81C376.43 672.04 369.55 677.89 362.31 677.89Z" fill="#ffc930" opacity="1" stroke-width="4" stroke="#000000"></path><path d="M334.93 662.73H248.38C244.26 662.73 241.53 659.39 242.27 655.28L253.71 590.21C254.44 586.09 258.34 582.76 262.46 582.76H349.01C353.13 582.76 355.86 586.09 355.12 590.21L343.64 655.28C342.99 659.39 339.05 662.73 334.93 662.73Z" fill="#3c2c5b" opacity="1" stroke-width="4" stroke="#000000"></path><path d="M368.68 614.17C363.91 614.17 359.41 618.02 358.54 622.79 357.72 627.55 360.88 631.41 365.65 631.41 370.41 631.41 374.92 627.55 375.78 622.79 376.61 618.02 373.4 614.17 368.68 614.17ZM370.19 622.74C369.85 624.48 368.38 625.73 366.64 625.78 365.26 625.82 364.13 624.74 364.09 623.39 364.09 623.18 364.09 622.96 364.13 622.74 364.48 621.01 365.95 619.75 367.68 619.71 369.07 619.67 370.19 620.75 370.24 622.09 370.24 622.31 370.24 622.53 370.19 622.74Z" fill="#3c2c5b" opacity="1" stroke-width="4" stroke="#000000"></path><path d="M377.3 601H364.69C363.65 601.04 362.79 600.22 362.74 599.18 362.74 599 362.74 598.83 362.79 598.7L363.22 596.19C363.48 594.89 364.61 593.94 365.91 593.89H378.51C379.55 593.85 380.42 594.67 380.46 595.71 380.46 595.89 380.46 596.06 380.42 596.19L379.99 598.7C379.73 600 378.6 600.95 377.3 601Z" fill="#3c2c5b" opacity="1" stroke-width="4" stroke="#000000"></path><path d="M379.25 589.86H366.64C365.6 589.91 364.74 589.08 364.69 588.04 364.69 587.87 364.69 587.7 364.74 587.57L365.17 585.05C365.43 583.76 366.56 582.8 367.86 582.76H380.46C381.5 582.72 382.37 583.54 382.41 584.58 382.41 584.75 382.41 584.92 382.37 585.05L381.93 587.57C381.67 588.87 380.59 589.82 379.25 589.86Z" fill="#3c2c5b" opacity="1" stroke-width="4" stroke="#000000"></path><path d="M366.43 662.73H353.78C352.74 662.77 351.87 661.95 351.83 660.91 351.83 660.74 351.83 660.56 351.87 660.43L352.3 657.92C352.56 656.62 353.69 655.67 354.99 655.62H367.6C368.64 655.58 369.5 656.4 369.55 657.44 369.55 657.62 369.55 657.79 369.5 657.92L369.07 660.43C368.85 661.73 367.73 662.69 366.43 662.73Z" fill="#3c2c5b" opacity="1" stroke-width="4" stroke="#000000"></path><path d="M368.38 651.6H355.77C354.73 651.64 353.86 650.82 353.82 649.78 353.82 649.6 353.82 649.43 353.86 649.3L354.3 646.79C354.56 645.49 355.68 644.53 356.98 644.49H369.59C370.63 644.45 371.49 645.27 371.54 646.31 371.54 646.48 371.54 646.66 371.49 646.79L371.06 649.3C370.8 650.6 369.67 651.55 368.38 651.6Z" fill="#3c2c5b" opacity="1" stroke-width="4" stroke="#000000"></path></g><g><path d="M270.92 329.56L354.85 240.19 438.82 329.69H280.35Z" fill="#426289" opacity="1" stroke-width="4" stroke="#000000"></path><path d="M354.86 247.29V165.48" stroke="#000000" stroke-width="4" stroke-linecap="round" stroke-linejoin="round" opacity="1" fill="none"></path><path d="M354.86 352.7V365.52" stroke="#000000" stroke-width="4" stroke-linecap="round" stroke-linejoin="round" opacity="1" fill="none"></path><path d="M337.4 348.29L328.35 357.34" stroke="#000000" stroke-width="4" stroke-linecap="round" stroke-linejoin="round" opacity="1" fill="none"></path><path d="M372.4 348.29L381.45 357.34" stroke="#000000" stroke-width="4" stroke-linecap="round" stroke-linejoin="round" opacity="1" fill="none"></path><path d="M354.86 320.94C342.14 320.94 331.79 310.59 331.79 297.87 331.79 285.15 342.14 274.8 354.86 274.8 367.58 274.8 377.93 285.15 377.93 297.87 377.93 310.59 367.58 320.94 354.86 320.94Z" fill="#dae4f1" opacity="1" stroke-width="4" stroke="#000000"></path><path d="M438.23 329.12C437.76 328.84 390.55 301.59 354.86 301.59 319.17 301.59 280.18 326.56 273.86 326.44L354.85 240.19 438.26 329.08 438.23 329.12Z" fill="#338fff" opacity="1" stroke-width="4" stroke="#000000"></path><path d="M438.23 329.12C438 328.98 414.41 315.34 388.21 307.33L354.85 240.19 438.26 329.08 438.23 329.12Z" fill="#338fff00" opacity="0" stroke-width="4" stroke="#ffffff00"></path></g><g><path d="M959.52 871.38H1015.09C1021.97 871.38 1027.55 876.95 1027.55 883.83V991.17C1027.55 998.05 1021.97 1003.63 1015.09 1003.63H959.52C952.64 1003.63 947.06 998.05 947.06 991.17V883.83C947.06 876.95 952.64 871.38 959.52 871.38Z" fill="#9e76dd" opacity="1" stroke-width="4" stroke="#000000"></path><path d="M962.09 892.75H1012.52C1015.66 892.75 1018.2 895.29 1018.2 898.43V923.48C1018.2 926.61 1015.66 929.15 1012.52 929.15H962.09C958.95 929.15 956.41 926.61 956.41 923.48V898.43C956.41 895.29 958.95 892.75 962.09 892.75Z" fill="#e9e6ed" opacity="1" stroke-width="4" stroke="#000000"></path><path d="M977.62 880.06H996.99C998.19 880.06 999.16 881.03 999.16 882.23 999.16 883.43 998.19 884.4 996.99 884.4H977.62C976.42 884.4 975.45 883.43 975.45 882.23 975.45 881.03 976.42 880.06 977.62 880.06Z" fill="#231f20" opacity="1" stroke-width="4" stroke="#000000"></path><path d="M962.09 938.5H967.43C970.57 938.5 973.11 941.04 973.11 944.18V947.86C973.11 951 970.57 953.53 967.43 953.53H962.09C958.95 953.53 956.41 951 956.41 947.86V944.18C956.41 941.04 958.95 938.5 962.09 938.5Z" fill="#231f20" opacity="1" stroke-width="4" stroke="#000000"></path><path d="M1007.17 938.5H1012.52C1015.66 938.5 1018.2 941.04 1018.2 944.18V947.86C1018.2 951 1015.66 953.53 1012.52 953.53H1007.17C1004.04 953.53 1001.5 951 1001.5 947.86V944.18C1001.5 941.04 1004.04 938.5 1007.17 938.5Z" fill="#231f20" opacity="1" stroke-width="4" stroke="#000000"></path><path d="M984.63 938.5H990.01C993.15 938.5 995.69 941.04 995.69 944.18V947.86C995.69 951 993.15 953.53 990.01 953.53H984.63C981.49 953.53 978.95 951 978.95 947.86V944.18C978.95 941.04 981.49 938.5 984.63 938.5Z" fill="#231f20" opacity="1" stroke-width="4" stroke="#000000"></path><path d="M962.09 958.54H967.43C970.57 958.54 973.11 961.08 973.11 964.22V967.89C973.11 971.03 970.57 973.57 967.43 973.57H962.09C958.95 973.57 956.41 971.03 956.41 967.89V964.22C956.41 961.08 958.95 958.54 962.09 958.54Z" fill="#231f20" opacity="1" stroke-width="4" stroke="#000000"></path><path d="M1007.17 958.54H1012.52C1015.66 958.54 1018.2 961.08 1018.2 964.22V967.89C1018.2 971.03 1015.66 973.57 1012.52 973.57H1007.17C1004.04 973.57 1001.5 971.03 1001.5 967.89V964.22C1001.5 961.08 1004.04 958.54 1007.17 958.54Z" fill="#231f20" opacity="1" stroke-width="4" stroke="#000000"></path><path d="M984.63 958.54H990.01C993.15 958.54 995.69 961.08 995.69 964.22V967.89C995.69 971.03 993.15 973.57 990.01 973.57H984.63C981.49 973.57 978.95 971.03 978.95 967.89V964.22C978.95 961.08 981.49 958.54 984.63 958.54Z" fill="#231f20" opacity="1" stroke-width="4" stroke="#000000"></path><path d="M962.09 978.58H967.43C970.57 978.58 973.11 981.12 973.11 984.26V987.93C973.11 991.07 970.57 993.61 967.43 993.61H962.09C958.95 993.61 956.41 991.07 956.41 987.93V984.26C956.41 981.12 958.95 978.58 962.09 978.58Z" fill="#231f20" opacity="1" stroke-width="4" stroke="#000000"></path><path d="M1007.17 978.58H1012.52C1015.66 978.58 1018.2 981.12 1018.2 984.26V987.93C1018.2 991.07 1015.66 993.61 1012.52 993.61H1007.17C1004.04 993.61 1001.5 991.07 1001.5 987.93V984.26C1001.5 981.12 1004.04 978.58 1007.17 978.58Z" fill="#231f20" opacity="1" stroke-width="4" stroke="#000000"></path><path d="M984.63 978.58H990.01C993.15 978.58 995.69 981.12 995.69 984.26V987.93C995.69 991.07 993.15 993.61 990.01 993.61H984.63C981.49 993.61 978.95 991.07 978.95 987.93V984.26C978.95 981.12 981.49 978.58 984.63 978.58Z" fill="#231f20" opacity="1" stroke-width="4" stroke="#000000"></path></g><g><path d="M682.45 154.15H1100.15C1129.25 154.15 1152.75 177.75 1152.75 206.75V624.45C1152.75 653.55 1129.15 677.05 1100.15 677.05H682.45C653.35 677.05 629.85 653.45 629.85 624.45V206.85C629.75 177.75 653.35 154.15 682.45 154.15Z" fill="#cecece" opacity="1" stroke-width="4" stroke="#000000"></path></g><g><path d="M897.43 501.84V557.42" stroke="#000000" stroke-width="4" stroke-linecap="round" stroke-linejoin="round" opacity="1" fill="none"></path><path d="M951.77 491.79C883.78 519.83 805.87 487.33 777.83 419.34 749.79 351.35 782.29 273.44 850.28 245.4L951.77 491.79Z" stroke="#000000" stroke-width="4" stroke-linecap="round" stroke-linejoin="round" opacity="1" fill="none"></path><path d="M951.77 491.79C883.78 519.83 805.87 487.33 777.83 419.34 749.79 351.35 782.29 273.44 850.28 245.4L951.77 491.79Z" fill="#3c2c5b00" opacity="0" stroke-width="4" stroke="#ffffff00"></path><path d="M901.77 256.07C910.2 256.07 918.76 257.06 926.58 258.8 940.6 261.9 962.06 280.39 962.06 280.39 962.06 280.39 987.5 293.91 995.81 306.32 1007.84 324.3 1014.91 346.02 1014.91 369.22 1014.91 431.74 964.3 482.36 901.77 482.36 842.34 482.36 793.46 436.09 788.87 377.78 788.62 374.8 788.62 372.32 788.62 369.22 788.62 361.28 797.93 348.62 797.93 348.62 797.93 348.62 795.44 329.52 799.04 321.7 817.03 283.11 856.36 256.07 901.77 256.07Z" fill="#3c2c5b" opacity="1" stroke-width="4" stroke="#000000"></path><path d="M826.09 402.34C835.52 443.41 848.42 419.83 859.59 433.36 877.57 455.07 894.82 464.75 908.22 462.76 921.62 460.78 898.05 444.9 898.05 419.34 898.05 393.78 890.6 377.4 871.25 374.55 851.89 371.7 846.06 392.29 834.15 386.09 825.34 381.37 850.03 356.06 852.02 333.73 855.12 300.36 801.15 321.08 799.04 321.7 799.04 321.7 798.92 321.7 798.92 321.82 790.85 339.32 787.26 358.55 788.74 377.78 788.74 377.78 788.74 377.78 788.74 377.9 807.23 401.47 821.25 381.25 826.09 402.34Z" fill="#9e76dd" opacity="1" stroke-width="4" stroke="#000000"></path><path d="M926.58 258.8C923.48 260.04 920.87 261.65 918.27 263.51 893.45 280.63 884.03 318.35 898.05 324.68 911.94 331 929.43 307.31 941.34 303.21 961.94 296.27 958.84 314.88 947.3 320.58 935.76 326.29 916.53 326.41 912.69 341.8 908.71 357.68 924.72 361.77 942.46 364.01 960.2 366.24 961.94 425.79 975.96 420.58 989.98 415.37 1004.12 378.4 992.83 333.73 988.98 318.6 991.47 310.78 995.68 306.44V306.32C979.56 282.25 954.87 265.25 926.58 258.8Z" fill="#9e76dd" opacity="1" stroke-width="4" stroke="#000000"></path><path d="M871.74 545.88H924.35C937.37 545.88 947.92 556.43 947.92 569.46V570.2H848.17V569.46C848.17 556.43 858.72 545.88 871.74 545.88Z" fill="#545454" opacity="1" stroke-width="4" stroke="#000000"></path></g><g><path d="M1164.71 182.09C1160.34 171.27 1149.57 164.42 1137.94 165.01 1137.4 165.04 1136.94 164.61 1136.91 164.07 1136.89 163.77 1137.02 163.48 1137.24 163.29 1146.01 155.6 1148.92 143.18 1144.52 132.36L1135.7 110.67 1084.89 131.28 1093.71 153.01C1098.11 163.8 1108.85 170.65 1120.48 170.09 1121.02 170.06 1121.48 170.49 1121.53 171.03 1121.56 171.33 1121.42 171.62 1121.21 171.81 1112.44 179.5 1109.52 191.92 1113.9 202.71L1122.72 224.43 1173.53 203.82 1164.71 182.09Z" fill="#ffc930" opacity="1" stroke-width="4" stroke="#000000"></path><path d="M1161.33 193.54L1164.06 200.23 1126.98 215.28 1120.53 199.45C1119.78 197.56 1119.29 195.56 1119.13 193.54L1161.33 193.54Z" fill="#3c2c5b" stroke-linecap="round" stroke-linejoin="round" opacity="1" stroke-width="4" stroke="#000000"></path><path d="M1137.94 193.54L1152.81 197.48 1155.37 203.76 1164.06 200.23 1161.33 193.54H1137.94Z" fill="#3c2c5b00" opacity="0" stroke-width="4" stroke="#ffffff00"></path><path d="M1126.85 161.75C1116.59 165.9 1104.94 160.97 1100.78 150.74L1097.24 140.34H1139.15C1140.45 149.42 1135.38 158.27 1126.85 161.75Z" fill="#3c2c5b" stroke-linecap="round" stroke-linejoin="round" opacity="1" stroke-width="4" stroke="#000000"></path><path d="M1139.15 140.35H1130.22C1131.52 149.42 1126.44 158.27 1117.92 161.75 1116.92 162.15 1115.89 162.48 1114.87 162.72 1118.73 163.61 1122.88 163.37 1126.85 161.75 1135.38 158.27 1140.45 149.42 1139.15 140.35Z" fill="#3c2c5b00" opacity="0" stroke-width="4" stroke="#ffffff00"></path><path d="M1117.97 226.36L1178.15 201.94" stroke="#000000" stroke-width="4" stroke-linecap="round" stroke-linejoin="round" opacity="1" fill="none"></path><path d="M1080.35 133.06L1140.5 108.64" stroke="#000000" stroke-width="4" stroke-linecap="round" stroke-linejoin="round" opacity="1" fill="none"></path><path d="M1117.83 149.13C1130.7 149.13 1138.02 144.14 1137.94 140.35H1098.23C1099.67 146.56 1105.82 149.13 1117.83 149.13Z" fill="#a1a1a1" stroke-linecap="round" opacity="1" stroke-width="4" stroke="#000000"></path><path d="M1140.45 202.39C1152.7 202.39 1161.33 193.54 1160.85 193.55H1120.22C1119.16 193.7 1127.93 202.39 1140.45 202.39Z" fill="#a1a1a1" stroke-linecap="round" stroke-linejoin="round" opacity="1" stroke-width="4" stroke="#000000"></path></g><g><path d="M471.54 882.9H693.15L689.41 868.02H592.16L555.02 722.91C544.6 682.33 508.07 653.79 466.07 653.79 423.88 653.79 389.67 688 389.67 730.19 389.67 736.57 390.48 742.95 392 749.12L414.87 838.88C421.45 864.78 444.82 882.9 471.54 882.9Z" fill="#9e76dd" opacity="1" stroke-width="4" stroke="#000000"></path><path d="M526.89 1092.87L563.73 874.19H677.97L714.71 1092.87C715.31 1096.82 712.68 1100.57 708.74 1101.27 708.33 1101.38 708.03 1101.38 707.52 1101.38 704.08 1101.38 701.15 1099.05 700.44 1095.61L652.47 874.19H589.43L541.26 1095.61C540.55 1098.95 537.52 1101.38 534.18 1101.38 530.13 1101.38 526.99 1098.14 526.99 1094.19 526.79 1093.68 526.79 1093.28 526.89 1092.87Z" fill="#3c2c5b" opacity="1" stroke-width="4" stroke="#000000"></path><path d="M563.73 874.19H589.43L573.34 948.07 562.31 882.39 563.73 874.19Z" fill="#3c2c5b00" opacity="0" stroke-width="4" stroke="#ffffff00"></path><path d="M556.95 1023.35L546.62 975.59 556.84 914.47 567.27 976 556.95 1023.35Z" fill="#3c2c5b00" opacity="0" stroke-width="4" stroke="#ffffff00"></path><path d="M550.17 1020.22H691.43V1035.9H550.17V1020.22Z" fill="#3c2c5b" opacity="1" stroke-width="4" stroke="#000000"></path><path d="M525.27 838.88L511.21 784.13H604.1C641.54 784.13 674.23 809.53 683.54 845.76L693.05 882.9H572.76C555.33 882.9 531.95 864.78 525.27 838.88Z" fill="#9e76dd" opacity="1" stroke-width="4" stroke="#000000"></path><path d="M688.7 865.9H591.96L571.11 784.13" stroke="#000000" stroke-width="4" stroke-linecap="round" stroke-linejoin="round" opacity="1" fill="none"></path><path d="M537.21 1031.85H555.12L551.68 1047.54H534.58L537.21 1031.85Z" fill="#3c2c5b00" opacity="0" stroke-width="4" stroke="#ffffff00"></path><path d="M433.19 1020.22L574.45 1020.22V1035.9L433.19 1035.9V1020.22Z" fill="#3c2c5b" opacity="1" stroke-width="4" stroke="#000000"></path><path d="M409.81 1092.87L446.64 874.19H560.89L597.73 1092.87C598.33 1096.82 595.7 1100.57 591.76 1101.27 591.35 1101.38 591.05 1101.38 590.54 1101.38 587.1 1101.38 584.17 1099.05 583.46 1095.61L535.39 874.19H472.25L424.08 1095.61C423.37 1098.95 420.33 1101.38 416.99 1101.38 412.95 1101.38 409.81 1098.04 409.81 1094.19 409.71 1093.68 409.81 1093.28 409.81 1092.87Z" fill="#3c2c5b" opacity="1" stroke-width="4" stroke="#000000"></path><path d="M562.52 1000.06L553.11 955.64" stroke="#000000" stroke-width="4" stroke-linecap="round" opacity="1" fill="none"></path><path d="M574.05 943.82L562.61 883.4" stroke="#000000" stroke-width="4" stroke-linecap="round" opacity="1" fill="none"></path><path d="M557.25 1020.07H540.25" stroke="#000000" stroke-width="4" stroke-linecap="round" opacity="1" fill="none"></path><path d="M554.11 1036.21H537.11" stroke="#000000" stroke-width="4" stroke-linecap="round" opacity="1" fill="none"></path><path d="M617.26 551.69L616.14 531.25C629.2 533.68 642.05 530.34 647.82 521.43 653.59 512.53 652.57 501.19 650.25 488.75 649.54 484.7 649.24 479.03 649.03 473.87 648.53 462.33 647.92 446.55 641.95 437.54 631.93 422.46 613.21 414.06 589.43 414.06 577.18 414.06 566.86 420.24 558.36 428.53 550.06 436.73 545.01 446.55 544.8 457.68 544.3 481.16 552.29 549.46 552.39 552.7L539.14 553.51 550.77 624.45 614.53 640.33 636.69 553.51C630.21 552.6 617.26 551.69 617.26 551.69Z" fill="#faa378" opacity="1" stroke-width="4" stroke="#000000"></path><path d="M616.04 1031.05L613.21 1025.48C614.63 1013.74 616.35 1001.9 618.47 990.97L623.53 975.89 724.02 977.41 721.69 990.87C719.06 999.57 717.24 1007.37 716.53 1013.44L689.92 1065.75 616.04 1031.05Z" fill="#faa378" opacity="1" stroke-width="4" stroke="#000000"></path><path d="M754.98 989.05L845.35 942.4 848.18 953.23C850.51 965.17 852.53 974.58 853.85 977.61L848.18 1037.32H775.53L766.01 1033.07C761.86 1021.63 758.02 1009.79 754.98 998.56V989.05 989.05Z" fill="#faa378" opacity="1" stroke-width="4" stroke="#000000"></path><path d="M598.23 524.57C606.03 528.82 616.14 531.25 616.14 531.25L616.95 546.02 598.23 524.57Z" fill="#faa37800" opacity="0" stroke-width="4" stroke="#ffffff00"></path><path d="M542.27 766.52L549.15 734.44 664.31 740.72 671.19 744.36C671.19 744.36 763.99 751.85 799 787.67 826.53 815.91 829.77 854.97 840.39 911.03 843.22 926.11 845.96 941.18 848.28 953.43L755.08 998.87C738.89 937.74 737.38 907.18 737.48 867.72L624.54 868.12C571.01 868.22 531.04 818.84 542.27 766.52Z" fill="#3c2c5b" opacity="1" stroke-width="4" stroke="#000000"></path><path d="M737.38 867.72L757.11 818.13C788.98 843.63 782.71 898.58 748.61 972.76 738.39 928.03 737.27 901.01 737.38 867.72Z" fill="#3c2c5b00" opacity="0" stroke-width="4" stroke="#ffffff00"></path><path d="M495.62 785.35C502.71 754.38 514.14 734.85 514.14 734.85L578.1 739C578.1 739 710.66 753.77 751.34 802.14 784.53 841.51 738.08 937.24 721.69 990.97H618.47C627.38 944.52 642.25 903.64 660.06 868.43H575.87C511.1 868.43 486.01 827.95 495.62 785.35Z" fill="#3c2c5b" opacity="1" stroke-width="4" stroke="#000000"></path><path d="M677.06 836.75L660.06 868.43C660.06 868.43 565.24 868.43 592.87 868.43 629.4 868.43 663.81 832.7 677.06 836.75Z" fill="#3c2c5b00" opacity="0" stroke-width="4" stroke="#ffffff00"></path><path d="M506.45 565.75C506.35 565.15 506.25 564.74 506.25 564.74 515.05 557.96 529.52 553.51 539.24 553.51L605.52 628.19 636.28 553.41C644.07 554.32 653.28 555.94 660.47 558.57 695.99 571.42 754.68 624.24 754.68 624.24 795.06 614.12 850.51 600.06 850.51 600.06L865.59 664.62C865.59 664.62 786.05 704.19 738.49 694.88 702.16 687.79 662.69 655.61 662.69 655.61L653.99 707.53 670.99 744.36H508.68V744.26L526.79 708.74C525.17 693.66 522.34 672.72 519.3 651.57" fill="#3c2c5b" opacity="1" stroke-width="4" stroke="#000000"></path><path d="M927.52 1036L856.78 1071.22C851.52 1067.78 845.96 1065.25 840.49 1063.12L918.82 1024.06C922.05 1027.1 924.89 1030.94 927.52 1036Z" fill="#231f20" opacity="1" stroke-width="4" stroke="#000000"></path><path d="M841.35 1024.23L830.68 1008.78C825.11 1000.89 828.05 989.86 836.75 985.51L853.75 977.31 853.85 977.51C854.76 979.64 855.57 981.56 856.58 983.38 872.87 1015.56 896.25 1009.09 913.76 1020.32 915.48 1021.43 917.4 1022.65 919.02 1024.27L840.69 1063.22C834.93 1061.1 829.16 1059.58 823.59 1058.67L823.19 1059.78 779.27 1063.63 777.85 1062.31C776.54 1059.48 775.42 1056.55 774.21 1053.71 771.28 1046.63 768.34 1039.65 765.81 1032.66 806.59 1014.15 842.92 1026.29 842.43 1025.79Z" fill="#338fff" opacity="1" stroke-width="4" stroke="#000000"></path><path d="M756 1101.38H671.5C668.26 1096.21 664.82 1091.36 661.38 1087.21H753.67C754.98 1091.15 756 1095.91 756 1101.38Z" fill="#231f20" opacity="1" stroke-width="4" stroke="#000000"></path><path d="M610.48 1057.86C610.68 1054.72 610.88 1051.79 610.98 1048.75 611.49 1040.66 612.3 1032.77 613.21 1024.97 656.62 1026.9 682.83 1052.8 682.01 1050.94L680.57 1039.84C677.67 1021.03 684.15 1013.44 692.65 1013.44H716.53C716.43 1014.45 716.33 1015.36 716.23 1016.27 716.02 1018.6 716.02 1020.62 716.02 1022.65 716.23 1058.77 740.01 1063.33 750.73 1081.24 751.95 1083.16 752.96 1085.29 753.77 1087.51H661.38C657.84 1083.26 654.29 1079.62 650.65 1076.48L649.94 1076.89 612.5 1062.62 610.48 1057.86Z" fill="#338fff" opacity="1" stroke-width="4" stroke="#000000"></path><path d="M610.48 1057.86C622.72 1059.68 636.89 1064.64 650.65 1076.48L647.51 1101.48H609.87C609.67 1094.6 609.67 1087.92 609.67 1081.24 609.77 1073.24 610.07 1065.45 610.48 1057.86Z" fill="#231f20" opacity="1" stroke-width="4" stroke="#000000"></path><path d="M698.01 767.94C719.97 776.74 739.6 787.98 751.44 802.14 774.72 829.77 758.63 885.33 741.32 934.51" stroke="#000000" stroke-width="4" stroke-linecap="round" stroke-linejoin="round" opacity="1" fill="none"></path><path d="M527.6 625.96L577.18 744.26H508.68L526.79 708.74C524.56 688.81 520.41 658.85 516.37 631.33L527.6 625.96Z" fill="#3c2c5b00" opacity="0" stroke-width="4" stroke="#ffffff00"></path><path d="M666.64 633.55L710.05 685.16C684.75 673.93 662.69 655.61 662.69 655.61L666.64 633.55Z" fill="#3c2c5b00" opacity="0" stroke-width="4" stroke="#ffffff00"></path><path d="M849.9 600.26C849.9 600.26 903.13 582.96 916.19 582.96 930.35 582.96 912.14 601.07 912.14 601.07 918.31 601.68 924.38 602.69 930.25 604.11 938.35 606.13 921.14 658.55 921.14 658.55 921.14 658.55 875.4 673.63 865.28 664.52L849.9 600.26Z" fill="#faa378" opacity="1" stroke-width="4" stroke="#000000"></path><path d="M605.52 628.29L605.52 688.81" stroke="#000000" stroke-width="4" stroke-linecap="round" stroke-linejoin="round" opacity="1" fill="none"></path><path d="M654.29 706.62H527.8" stroke="#000000" stroke-width="4" stroke-linecap="round" stroke-linejoin="round" opacity="1" fill="none"></path><path d="M532.25 634.97L532.56 635.68 508.47 668.87C520.72 668.36 530.53 668.06 538.63 667.76V722.2C516.47 731.21 472.55 746.08 449.68 735.25 383.3 703.78 475.89 584.98 506.25 564.74L507.16 567.17" fill="#3c2c5b" opacity="1" stroke-width="4" stroke="#000000"></path><path d="M666.64 631.02L662.9 655.51" stroke="#000000" stroke-width="4" stroke-linecap="round" stroke-linejoin="round" opacity="1" fill="none"></path><path d="M519.3 653.79L535.8 631.23" stroke="#000000" stroke-width="4" stroke-linecap="round" stroke-linejoin="round" opacity="1" fill="none"></path><path d="M508.68 668.67L484.49 670.59" stroke="#000000" stroke-width="4" stroke-linecap="round" stroke-linejoin="round" opacity="1" fill="none"></path><path d="M829.66 1084.88L796.68 1101.38C793.44 1095.3 790.4 1089.33 787.47 1083.36 784.03 1076.28 780.79 1069.2 777.85 1062.31 787.57 1058.67 804.77 1055.53 823.59 1058.67L829.66 1084.88Z" fill="#231f20" opacity="1" stroke-width="4" stroke="#000000"></path><path d="M720.3 1048.34L706.21 1054.83" stroke="#000000" stroke-width="4" stroke-linecap="round" stroke-linejoin="round" opacity="1" fill="none"></path><path d="M730.73 1060.78L718.35 1069.6" stroke="#000000" stroke-width="4" stroke-linecap="round" stroke-linejoin="round" opacity="1" fill="none"></path><path d="M873.89 1004.76L863.67 1016.88" stroke="#000000" stroke-width="4" stroke-linecap="round" stroke-linejoin="round" opacity="1" fill="none"></path><path d="M887.65 1011.3L880.36 1025.58" stroke="#000000" stroke-width="4" stroke-linecap="round" stroke-linejoin="round" opacity="1" fill="none"></path><path d="M720.98 990.97H618.79" stroke="#000000" stroke-width="4" stroke-linecap="round" stroke-linejoin="round" opacity="1" fill="none"></path><path d="M848.18 953.23L754.98 998.76" stroke="#000000" stroke-width="4" stroke-linecap="round" stroke-linejoin="round" opacity="1" fill="none"></path><path d="M601.57 525.94C605.62 528.37 611.69 530.6 616.14 531.31" stroke="#000000" stroke-width="4" stroke-linecap="round" stroke-linejoin="round" opacity="1" fill="none"></path><path d="M585.89 498.76L576.68 492.29" stroke="#000000" stroke-width="4" stroke-linecap="round" stroke-linejoin="round" opacity="1" fill="none"></path><path d="M621.2 497.45C622.82 500.99 626.97 503.11 630.82 502.41" stroke="#000000" stroke-width="4" stroke-linecap="round" stroke-linejoin="round" opacity="1" fill="none"></path><path d="M631.83 490.47C635.07 489.05 634.16 486.62 632.94 483.28" stroke="#000000" stroke-width="4" stroke-linecap="round" stroke-linejoin="round" opacity="1" fill="none"></path><path d="M614.17 478.74C613.05 477.65 613.02 475.86 614.1 474.73 615.18 473.61 616.97 473.58 618.11 474.66 619.23 475.74 619.27 477.53 618.18 478.67 617.1 479.79 615.3 479.82 614.17 478.74Z" fill="#231f20" opacity="1" stroke-width="4" stroke="#000000"></path><path d="M640.33 478.93C638.76 478.93 637.5 477.65 637.5 476.1 637.5 474.53 638.76 473.26 640.33 473.26 641.89 473.26 643.16 474.53 643.16 476.1 643.16 477.65 641.89 478.93 640.33 478.93Z" fill="#231f20" opacity="1" stroke-width="4" stroke="#000000"></path><path d="M487.63 568.89C487.43 513.84 533.17 506.66 539.24 473.87 545.41 440.48 549.26 433.9 557.55 425.8 566.05 417.5 577.39 413.86 589.63 413.46 626.06 412.04 641.04 426.51 647.31 439.46 650.55 446.04 652.17 455.86 649.05 464.72L595.87 464.84 591.71 480.61C591.96 481.36 567.98 467.7 560.79 481.76 550.47 502 583.05 517.18 583.05 517.18L576.98 569.09 487.63 568.89Z" fill="#231f20" opacity="1" stroke-width="4" stroke="#000000"></path><path d="M289.49 739.1L932.07 739.1V759.95H289.49V739.1Z" fill="#231f20" opacity="1" stroke-width="4" stroke="#000000"></path><path d="M698.82 707.22L894.43 707.22C904.65 707.22 914.06 698.93 915.78 688.81L936.32 559.78C937.94 549.56 930.96 541.37 920.94 541.37H725.33C715.11 541.37 705.7 549.66 703.98 559.78L683.44 688.81C681.72 699.03 688.6 707.22 698.82 707.22Z" fill="#338fff" opacity="1" stroke-width="4" stroke="#000000"></path><path d="M769.15 707.12H830.88L839.89 651.57H777.95L769.15 707.12Z" fill="#338fff00" opacity="0" stroke-width="4" stroke="#ffffff00"></path><path d="M801.53 739.1H863.46L839.89 652.78H777.92L801.53 739.1Z" fill="#338fff" opacity="1" stroke-width="4" stroke="#000000"></path><path d="M812.27 617.22C804.9 614.26 802.02 604.21 805.81 594.78 809.62 585.34 818.66 580.09 826.02 583.06 833.39 586.02 836.27 596.07 832.48 605.5 828.67 614.94 819.63 620.19 812.27 617.22Z" fill="#e0e6ed" opacity="1" stroke-width="4" stroke="#000000"></path><path d="M854.46 706.62L839.89 652.48 778.73 652.48 792.63 706.62" stroke="#000000" stroke-width="4" stroke-linecap="round" stroke-linejoin="round" opacity="1" fill="none"></path><path d="M775.02 725.13L577.18 725.13C570.51 725.13 565.14 730.5 565.14 737.18V739.2L787.06 739.2V737.18C787.06 730.5 781.7 725.13 775.02 725.13Z" fill="#338fff" opacity="1" stroke-width="4" stroke="#000000"></path><path d="M635.88 725.13H577.18C570.51 725.13 565.14 730.5 565.14 737.18V739.2H647.82V737.18C647.92 730.5 642.56 725.13 635.88 725.13Z" fill="#12181f" opacity="1" stroke-width="4" stroke="#000000"></path><path d="M929.24 603.7C934 604.61 937.74 605.93 939.46 608.05 945.73 616.35 937.03 623.03 937.03 623.03 937.03 623.03 948.47 629.3 940.27 639.63 940.27 639.63 945.73 649.54 935.82 654.91 935.82 654.91 941.38 661.79 931.36 668.16 921.35 674.54 907.89 674.94 905.05 672.01 901.82 668.47 902.63 663.41 908.08 659.55 909.61 658.25 896.86 659.06 895.34 652.28 893.82 645.39 900.6 641.85 900.06 642.59 900.6 641.85 891.9 641.55 892.2 633.76 892.51 625.96 900.3 624.35 900.25 624.95 900.74 625.48 897.97 620.6 902.12 615.24 905.86 610.38 928.33 609.67 928.33 609.67L929.11 604.42Z" fill="#faa378" opacity="1" stroke-width="4" stroke="#000000"></path><path d="M935.82 655.21C926.2 657.84 916.19 659.36 906.37 659.03" stroke="#000000" stroke-width="4" stroke-linecap="round" opacity="1" fill="none"></path><path d="M940.27 639.42C926.71 642.66 912.74 643.88 899.68 642.58" stroke="#000000" stroke-width="4" stroke-linecap="round" opacity="1" fill="none"></path><path d="M938.45 623.64C925.7 626.37 912.64 627.08 898.96 624.83" stroke="#000000" stroke-width="4" stroke-linecap="round" stroke-linejoin="round" opacity="1" fill="none"></path><path d="M570.2 668.67C584.88 669.88 603.9 675.25 613.41 678.69 622.01 681.62 646.1 689.72 646 695.89 646.1 701.86 618.47 695.89 618.47 695.89 618.47 695.89 636.89 712.99 638.61 718.66 640.53 724.93 632.44 728.07 632.44 728.07 630.11 738.39 618.57 732.12 618.57 732.12 612 746.18 577.49 717.65 577.49 717.65 568.99 718.56 560.59 718.15 552.19 716.53 552.19 716.53 546.83 719.06 538.43 722.4V667.96C549.05 667.56 559.58 667.76 570.2 668.67Z" fill="#faa378" opacity="1" stroke-width="4" stroke="#000000"></path><path d="M617.79 731.8L593.38 712.04" stroke="#000000" stroke-width="4" stroke-linecap="round" stroke-linejoin="round" opacity="1" fill="none"></path><path d="M632.74 728.07L606.53 701.86" stroke="#000000" stroke-width="4" stroke-linecap="round" stroke-linejoin="round" opacity="1" fill="none"></path><path d="M618.52 695.85L607.03 688.03" stroke="#000000" stroke-width="4" stroke-linecap="round" stroke-linejoin="round" opacity="1" fill="none"></path><path d="M414.87 838.88L400.8 784.13H482.57C520.01 784.13 552.7 809.53 562.01 845.76L571.52 882.9H471.44C444.82 882.9 421.45 864.78 414.87 838.88Z" fill="#9e76dd" opacity="1" stroke-width="4" stroke="#000000"></path><path d="M400.8 784.64H486.11" stroke="#000000" stroke-width="4" stroke-linecap="round" stroke-linejoin="round" opacity="1" fill="none"></path><path d="M567.67 868.43L571.42 882.9" stroke="#000000" stroke-width="4" stroke-linecap="round" stroke-linejoin="round" opacity="1" fill="none"></path></g></svg>