<svg id="visual" viewBox="0 0 900 600" width="900" height="600" xmlns="http://www.w3.org/2000/svg" xmlns:xlink="http://www.w3.org/1999/xlink" version="1.1"><rect x="0" y="0" width="900" height="600" fill="#e4f1ff"></rect><defs><linearGradient id="grad1_0" x1="33.3%" y1="0%" x2="100%" y2="100%"><stop offset="20%" stop-color="#0037ff" stop-opacity="1"></stop><stop offset="80%" stop-color="#0037ff" stop-opacity="1"></stop></linearGradient></defs><defs><linearGradient id="grad1_1" x1="33.3%" y1="0%" x2="100%" y2="100%"><stop offset="20%" stop-color="#0037ff" stop-opacity="1"></stop><stop offset="80%" stop-color="#0072ff" stop-opacity="1"></stop></linearGradient></defs><defs><linearGradient id="grad1_2" x1="33.3%" y1="0%" x2="100%" y2="100%"><stop offset="20%" stop-color="#54a0ff" stop-opacity="1"></stop><stop offset="80%" stop-color="#0072ff" stop-opacity="1"></stop></linearGradient></defs><defs><linearGradient id="grad1_3" x1="33.3%" y1="0%" x2="100%" y2="100%"><stop offset="20%" stop-color="#54a0ff" stop-opacity="1"></stop><stop offset="80%" stop-color="#9bcbff" stop-opacity="1"></stop></linearGradient></defs><defs><linearGradient id="grad1_4" x1="33.3%" y1="0%" x2="100%" y2="100%"><stop offset="20%" stop-color="#e4f1ff" stop-opacity="1"></stop><stop offset="80%" stop-color="#9bcbff" stop-opacity="1"></stop></linearGradient></defs><defs><linearGradient id="grad2_0" x1="0%" y1="0%" x2="66.7%" y2="100%"><stop offset="20%" stop-color="#0037ff" stop-opacity="1"></stop><stop offset="80%" stop-color="#0037ff" stop-opacity="1"></stop></linearGradient></defs><defs><linearGradient id="grad2_1" x1="0%" y1="0%" x2="66.7%" y2="100%"><stop offset="20%" stop-color="#0072ff" stop-opacity="1"></stop><stop offset="80%" stop-color="#0037ff" stop-opacity="1"></stop></linearGradient></defs><defs><linearGradient id="grad2_2" x1="0%" y1="0%" x2="66.7%" y2="100%"><stop offset="20%" stop-color="#0072ff" stop-opacity="1"></stop><stop offset="80%" stop-color="#54a0ff" stop-opacity="1"></stop></linearGradient></defs><defs><linearGradient id="grad2_3" x1="0%" y1="0%" x2="66.7%" y2="100%"><stop offset="20%" stop-color="#9bcbff" stop-opacity="1"></stop><stop offset="80%" stop-color="#54a0ff" stop-opacity="1"></stop></linearGradient></defs><defs><linearGradient id="grad2_4" x1="0%" y1="0%" x2="66.7%" y2="100%"><stop offset="20%" stop-color="#9bcbff" stop-opacity="1"></stop><stop offset="80%" stop-color="#e4f1ff" stop-opacity="1"></stop></linearGradient></defs><g transform="translate(900, 0)"><path d="M0 405.6C-57.4 401 -114.8 396.4 -151.5 365.9C-188.3 335.4 -204.3 279 -243.2 243.2C-282.1 207.5 -343.9 192.3 -374.7 155.2C-405.6 118.1 -405.6 59.1 -405.6 0L0 0Z" fill="#bfdeff"></path><path d="M0 324.5C-45.9 320.8 -91.8 317.1 -121.2 292.7C-150.6 268.3 -163.5 223.2 -194.6 194.6C-225.7 166 -275.1 153.9 -299.8 124.2C-324.5 94.5 -324.5 47.2 -324.5 0L0 0Z" fill="#77b6ff"></path><path d="M0 243.4C-34.4 240.6 -68.9 237.8 -90.9 219.5C-113 201.2 -122.6 167.4 -145.9 145.9C-169.3 124.5 -206.3 115.4 -224.8 93.1C-243.4 70.9 -243.4 35.4 -243.4 0L0 0Z" fill="#2e8aff"></path><path d="M0 162.2C-23 160.4 -45.9 158.5 -60.6 146.3C-75.3 134.1 -81.7 111.6 -97.3 97.3C-112.9 83 -137.6 76.9 -149.9 62.1C-162.2 47.2 -162.2 23.6 -162.2 0L0 0Z" fill="#0057ff"></path><path d="M0 81.1C-11.5 80.2 -23 79.3 -30.3 73.2C-37.7 67.1 -40.9 55.8 -48.6 48.6C-56.4 41.5 -68.8 38.5 -74.9 31C-81.1 23.6 -81.1 11.8 -81.1 0L0 0Z" fill="#0037ff"></path></g><g transform="translate(0, 600)"><path d="M0 -405.6C41.9 -373.7 83.8 -341.8 135.5 -327.1C187.2 -312.3 248.7 -314.8 286.8 -286.8C325 -258.8 339.8 -200.2 355.7 -147.3C371.6 -94.4 388.6 -47.2 405.6 0L0 0Z" fill="#bfdeff"></path><path d="M0 -324.5C33.5 -299 67 -273.4 108.4 -261.6C149.7 -249.9 198.9 -251.9 229.5 -229.5C260 -207 271.8 -160.2 284.6 -117.9C297.3 -75.6 310.9 -37.8 324.5 0L0 0Z" fill="#77b6ff"></path><path d="M0 -243.4C25.1 -224.2 50.3 -205.1 81.3 -196.2C112.3 -187.4 149.2 -188.9 172.1 -172.1C195 -155.3 203.9 -120.1 213.4 -88.4C223 -56.7 233.2 -28.3 243.4 0L0 0Z" fill="#2e8aff"></path><path d="M0 -162.2C16.8 -149.5 33.5 -136.7 54.2 -130.8C74.9 -124.9 99.5 -125.9 114.7 -114.7C130 -103.5 135.9 -80.1 142.3 -58.9C148.6 -37.8 155.4 -18.9 162.2 0L0 0Z" fill="#0057ff"></path><path d="M0 -81.1C8.4 -74.7 16.8 -68.4 27.1 -65.4C37.4 -62.5 49.7 -63 57.4 -57.4C65 -51.8 68 -40 71.1 -29.5C74.3 -18.9 77.7 -9.4 81.1 0L0 0Z" fill="#0037ff"></path></g></svg>