<svg xmlns="http://www.w3.org/2000/svg" height="1200" width="1600" version="1.1" xmlns:xlink="http://www.w3.org/1999/xlink" xmlns:svgjs="http://svgjs.com/svgjs"><rect fill="#ffffff" width="1600" height="1200"></rect><g><path d="M785.61 234.29H1180.86C1192.04 234.3 1202.76 238.74 1210.67 246.65 1218.57 254.55 1223.02 265.27 1223.02 276.45V607.46H743.45V276.45C743.45 265.27 747.9 254.55 755.8 246.64 763.71 238.74 774.43 234.3 785.61 234.29Z" fill="#3c2c5b" opacity="1" stroke-width="4" stroke="#000000"></path><path d="M796 293.34C802.85 293.34 808.4 287.78 808.4 280.94 808.4 274.09 802.85 268.54 796 268.54 789.15 268.54 783.6 274.09 783.6 280.94 783.6 287.78 789.15 293.34 796 293.34Z" fill="#707070" opacity="1" stroke-width="4" stroke="#000000"></path><path d="M838.51 293.34C845.36 293.34 850.91 287.78 850.91 280.94 850.91 274.09 845.36 268.54 838.51 268.54 831.66 268.54 826.11 274.09 826.11 280.94 826.11 287.78 831.66 293.34 838.51 293.34Z" fill="#707070" opacity="1" stroke-width="4" stroke="#000000"></path><path d="M881.03 293.34C887.87 293.34 893.43 287.78 893.43 280.94 893.43 274.09 887.87 268.54 881.03 268.54 874.18 268.54 868.63 274.09 868.63 280.94 868.63 287.78 874.18 293.34 881.03 293.34Z" fill="#707070" opacity="1" stroke-width="4" stroke="#000000"></path><path d="M742.27 326.4H1222.91" stroke="#000000" stroke-width="4" stroke-linecap="round" stroke-linejoin="round" opacity="1" fill="none"></path></g><g><path d="M888.6 422.27H1072.81C1090.91 422.27 1105.61 436.97 1105.61 455.07V475.23C1105.61 493.34 1090.91 508.03 1072.81 508.03H888.6C870.49 508.03 855.8 493.34 855.8 475.23V455.07C855.8 436.97 870.49 422.27 888.6 422.27Z" fill="#61ccff" opacity="1" stroke-width="4" stroke="#000000"></path><path d="M901.7 481.84C910.95 481.84 918.46 474.33 918.46 465.07 918.46 455.82 910.95 448.31 901.7 448.31 892.44 448.31 884.93 455.82 884.93 465.07 884.93 474.33 892.44 481.84 901.7 481.84Z" stroke="#000000" stroke-width="4" stroke-linecap="round" stroke-linejoin="round" opacity="1" fill="none"></path><path d="M913.56 476.94L918.66 482.04" stroke="#000000" stroke-width="4" stroke-linecap="round" stroke-linejoin="round" opacity="1" fill="none"></path><path d="M939.6 479.62H1071.62" stroke="#000000" stroke-width="4" stroke-linecap="round" stroke-linejoin="round" opacity="1" fill="none"></path></g><g><path d="M326.25 608.07H264.82V762.34H326.25V608.07Z" fill="#ffffff" opacity="1" stroke-width="4" stroke="#000000"></path><path d="M264.82 608.07H276.97L299.36 762.34H264.82V608.07Z" fill="#cecece00" opacity="0" stroke-width="4" stroke="#ffffff00"></path><path d="M593.82 638.11H550.14V762.34H593.82V638.11Z" fill="#cecece" opacity="1" stroke-width="4" stroke="#000000"></path><path d="M550.14 638.11H555.05L571.98 762.34H550.14V638.11Z" fill="#cecece00" opacity="0" stroke-width="4" stroke="#ffffff00"></path><path d="M516.01 608.07H475.06V762.34H516.01V608.07Z" fill="#cecece" opacity="1" stroke-width="4" stroke="#000000"></path><path d="M659.35 608.07H593.82V762.34H659.35V608.07Z" fill="#ffffff" opacity="1" stroke-width="4" stroke="#000000"></path><path d="M694.16 608.07H659.35V762.34H694.16V608.07Z" fill="#cecece" opacity="1" stroke-width="4" stroke="#000000"></path><path d="M659.35 608.07H664.95L679.56 762.34H659.35V608.07Z" fill="#cecece00" opacity="0" stroke-width="4" stroke="#ffffff00"></path><path d="M728.98 608.07H694.16V762.34H728.98V608.07Z" fill="#2c4fa0" opacity="1" stroke-width="4" stroke="#000000"></path><path d="M437.38 607.72L360.24 741.31 398.07 763.16 475.21 629.56 437.38 607.72Z" fill="#cecece" opacity="1" stroke-width="4" stroke="#000000"></path><path d="M468.23 625.27L475.19 629.37 398.06 762.88 360.24 741.04 368.44 726.98 468.23 625.27Z" fill="#cecece00" opacity="0" stroke-width="4" stroke="#ffffff00"></path><path d="M360.38 584.87H326.25V762.34H360.38V584.87Z" fill="#cecece" opacity="1" stroke-width="4" stroke="#000000"></path><path d="M550.14 584.87H516.01V762.34H550.14V584.87Z" fill="#2c4fa0" opacity="1" stroke-width="4" stroke="#000000"></path><path d="M308.5 857.63H264.82V1011.89H308.5V857.63Z" fill="#ffffff" opacity="1" stroke-width="4" stroke="#000000"></path><path d="M264.82 857.63H279.56L303.73 1011.89H264.82V857.63Z" fill="#cecece00" opacity="0" stroke-width="4" stroke="#ffffff00"></path><path d="M352.19 857.63H308.5V1011.89H352.19V857.63Z" fill="#cecece" opacity="1" stroke-width="4" stroke="#000000"></path><path d="M386.32 828.96H352.19V1011.89H386.32V828.96Z" fill="#ffffff" opacity="1" stroke-width="4" stroke="#000000"></path><path d="M468.23 828.96H386.32V1011.89H468.23V828.96Z" fill="#cecece" opacity="1" stroke-width="4" stroke="#000000"></path><path d="M386.32 828.96H393.83L413.9 1011.89H386.32V828.96Z" fill="#cecece00" opacity="0" stroke-width="4" stroke="#ffffff00"></path><path d="M509.18 883.56H468.23V1011.89H509.18V883.56Z" fill="#2c4fa0" opacity="1" stroke-width="4" stroke="#000000"></path><path d="M468.23 883.56H478.33L496.9 1011.89H468.23V883.56Z" fill="#2c4fa000" opacity="0" stroke-width="4" stroke="#ffffff00"></path><path d="M619.76 857.63H578.81V1011.89H619.76V857.63Z" fill="#2c4fa0" opacity="1" stroke-width="4" stroke="#000000"></path><path d="M660.72 857.63H619.76V1011.89H660.72V857.63Z" fill="#cecece" opacity="1" stroke-width="4" stroke="#000000"></path><path d="M578.81 857.63H509.18V1011.89H578.81V857.63Z" fill="#ffffff" opacity="1" stroke-width="4" stroke="#000000"></path><path d="M728.98 857.63H660.72V1011.89H728.98V857.63Z" fill="#cecece" opacity="1" stroke-width="4" stroke="#000000"></path><path d="M264.82 762.34H728.98" stroke="#000000" stroke-width="4" stroke-linecap="round" stroke-linejoin="round" opacity="1" fill="none"></path><path d="M264.82 557.56V1009.84H728.98V557.56" stroke="#000000" stroke-width="4" stroke-linecap="round" stroke-linejoin="round" opacity="1" fill="none"></path><path d="M660.72 857.63H666.59L690.89 1011.89H660.72V857.63Z" fill="#cecece00" opacity="0" stroke-width="4" stroke="#ffffff00"></path></g><g><path d="M485.09 736.6C471.41 736.6 464.57 732.24 464.57 723.54 464.57 713.27 463.48 696.95 462.24 677.82 459.44 635.37 455.86 582.66 461.46 558.55 469.86 523.26 506.55 510.66 537.96 510.66 549.94 510.66 562.22 512.37 573.26 515.79 607.31 526.06 614 553.11 621.62 584.37 622.55 588.41 623.64 592.45 624.57 596.5 626.28 596.81 637.64 598.98 638.57 603.65 639.81 609.71 631.73 617.49 630.64 618.58 636.39 651.85 630.95 672.69 613.38 684.04 604.98 689.48 596.43 692.13 587.1 692.13 579.48 692.13 571.08 690.26 565.02 688.55L566.42 715.76 566.26 715.92C565.49 716.23 514.33 736.6 485.09 736.6Z" fill="#e9c3aa" opacity="1" stroke-width="4" stroke="#000000"></path><path d="M687.55 811.39C687.08 810.3 639.97 703.94 635.77 695.7 633.75 691.66 631.57 687.46 630.33 683.11 629.86 681.08 629.24 678.6 630.17 676.73 631.57 673.62 635.77 674.71 638.26 675.49 646.65 678.29 653.65 684.35 660.49 689.79 663.14 691.81 665.62 693.99 668.42 695.86 670.6 697.26 673.4 698.97 675.73 697.1 678.84 694.61 676.82 690.1 675.11 687.46 672.47 683.42 668.73 680.15 665 677.35 659.25 673.15 653.5 670.36 648.36 667.87 640.9 664.29 635.61 661.8 635.61 656.98 635.61 645.79 658.32 649.21 664.69 649.99 677.44 651.7 690.19 655.12 701.39 661.65 712.9 668.33 722.54 678.13 728.44 690.1 742.91 719.18 745.55 724.16 763.74 757.59L764.21 763.5 687.55 812.01V811.39 811.39Z" fill="#e9c3aa" opacity="1" stroke-width="4" stroke="#000000"></path><path d="M386.04 1013.84C375 1013.69 345.77 1004.98 335.82 964.24 331 942.78 334.42 912 345.62 875.3 354.95 844.35 369.87 810.15 386.2 781.22 415.43 729.91 459.28 713.58 463.01 712.34L463.17 699.59 565.8 699.74 566.89 711.41C623.17 713.89 662.36 754.01 662.67 754.32 662.83 754.48 681.33 774.54 693.61 789.93L763.43 757.12C785.2 796.77 830.29 893.18 776.65 931.28 764.99 939.52 751.15 943.72 735.75 943.72 685.99 943.72 632.66 900.18 627.37 895.82L611.05 991.45 434.4 991.61C426.47 1007.31 403.15 1014 386.04 1013.84Z" fill="#9ecbff" opacity="1" stroke-width="4" stroke="#000000"></path><path d="M424.14 922.41C408.12 933.76 405.79 956.31 400.97 974.97 396.77 991.14 390.86 1001.09 386.2 1013.84 403.15 1014 426.63 1007.31 434.56 991.61L424.76 922.1 424.14 922.41Z" fill="#9ecbff00" opacity="0" stroke-width="4" stroke="#ffffff00"></path><path d="M611.05 991.45L627.37 895.82 604.67 877.01 555.69 991.45H611.05Z" fill="#9ecbff00" opacity="0" stroke-width="4" stroke="#ffffff00"></path><path d="M460.53 557C469.08 521.39 506.09 508.64 537.81 508.64 549.94 508.64 562.38 510.35 573.42 513.77 600.01 521.86 609.02 540.98 614.78 557.93 614.78 557.93 608.56 562.75 599.07 562.75 592.85 562.75 586.48 560.58 580.72 556.38 583.06 571.46 581.81 582.19 576.99 587.79 574.19 591.21 570.15 592.92 564.71 592.92 556.78 592.92 548.85 589.03 546.36 587.79 548.23 592.45 556.93 616.71 541.23 626.66L541.07 626.82 540.92 626.66C540.76 626.51 520.86 610.18 503.75 610.18 497.38 610.18 491.94 612.51 488.05 617.18 484.63 621.22 483.07 626.2 483.54 631.48 485.09 648.74 506.71 666.78 507.02 666.93L507.33 667.25 507.02 667.56C493.02 678.6 461.77 679.37 461.77 679.37 461.77 679.37 452.29 584.83 460.53 557Z" fill="#231f20" opacity="1" stroke-width="4" stroke="#000000"></path><path d="M616.64 634.44L601.72 634.9" stroke="#000000" stroke-width="4" stroke-linecap="round" stroke-linejoin="round" opacity="1" fill="none"></path><path d="M605.91 606.45C608.31 606.45 610.27 604.5 610.27 602.09 610.27 599.68 608.31 597.74 605.91 597.74 603.5 597.74 601.56 599.68 601.56 602.09 601.56 604.5 603.5 606.45 605.91 606.45Z" fill="#231f20" opacity="1" stroke-width="4" stroke="#000000"></path><path d="M627.84 896.29C616.8 887.74 607 877.94 597.05 868.3" stroke="#000000" stroke-width="4" stroke-linecap="round" stroke-linejoin="round" opacity="1" fill="none"></path><path d="M692.68 788.69L723 826.16" stroke="#000000" stroke-width="4" stroke-linecap="round" stroke-linejoin="round" opacity="1" fill="none"></path><path d="M433.78 989.43L418.23 880.59" stroke="#000000" stroke-width="4" stroke-linecap="round" stroke-linejoin="round" opacity="1" fill="none"></path><path d="M566.26 688.86C553.82 683.88 544.49 679.53 544.49 679.53" stroke="#000000" stroke-width="4" stroke-linecap="round" stroke-linejoin="round" opacity="1" fill="none"></path><path d="M524.43 649.52L511.53 639.57" stroke="#000000" stroke-width="4" stroke-linecap="round" stroke-linejoin="round" opacity="1" fill="none"></path></g><g><path d="M1191.31 917.76C1217.54 917.76 1244.63 896.41 1251.71 870.18L1301.17 685.58C1304.67 672.51 1302.77 660.3 1295.81 651.23 1289.18 642.59 1278.68 637.84 1266.24 637.84H969.92C943.67 637.84 916.58 659.25 909.52 685.56L860.06 870.01C856.62 883.12 858.58 895.35 865.59 904.43 872.22 913.03 882.66 917.76 894.99 917.76H1191.31Z" fill="#2d8feb" opacity="1" stroke-width="4" stroke="#000000"></path><path d="M1030.42 917.76C1030.52 917.13 1030.58 916.5 1030.61 915.87 1030.64 915.25 1030.68 914.63 1030.76 914.04 1032.66 894.98 1045.06 879.48 1058.39 879.48 1060.89 879.51 1063.36 880.07 1065.63 881.12 1067.9 882.18 1069.92 883.71 1071.55 885.61 1077.42 892.05 1080.3 902.67 1079.25 914.03L1078.81 917.71 1111.97 917.76 1119.37 841.17 1004.51 841.13 996.96 917.76H1030.42Z" fill="#2d8feb00" opacity="0" stroke-width="4" stroke="#ffffff00"></path><path d="M1156.13 976.64L1119.96 841.16 1004.95 841.13 1041.28 976.64H1156.13ZM1072.96 879.48C1086.23 879.48 1101.2 894.99 1106.34 914.04 1109.42 925.5 1108.31 936.19 1103.37 942.64 1101.99 944.52 1100.17 946.03 1098.09 947.07 1096 948.1 1093.69 948.62 1091.36 948.59 1078.01 948.59 1062.97 933.08 1057.84 914.02 1054.83 902.53 1056 891.83 1060.97 885.39 1062.36 883.53 1064.17 882.02 1066.25 880.99 1068.34 879.96 1070.64 879.45 1072.96 879.48Z" fill="#3c2c5b" opacity="1" stroke-width="4" stroke="#000000"></path><path d="M1131.4 708.39L1124.19 735.47" stroke="#000000" stroke-width="4" stroke-linecap="round" stroke-linejoin="round" opacity="1" fill="none"></path><path d="M1097.55 708.39L1090.33 735.47" stroke="#000000" stroke-width="4" stroke-linecap="round" stroke-linejoin="round" opacity="1" fill="none"></path><path d="M1063.69 708.39L1056.48 735.47" stroke="#000000" stroke-width="4" stroke-linecap="round" stroke-linejoin="round" opacity="1" fill="none"></path><path d="M989.05 976.64C989.06 973.92 988.54 971.24 987.51 968.73 986.47 966.22 984.96 963.94 983.04 962.01 981.13 960.09 978.85 958.57 976.35 957.53 973.84 956.48 971.16 955.95 968.44 955.95H722.61C717.14 955.95 711.89 958.13 708.02 962 704.15 965.87 701.97 971.12 701.96 976.6V976.64H989.05Z" fill="#2d8feb" opacity="1" stroke-width="4" stroke="#000000"></path><path d="M799.16 976.64C799.17 973.92 798.64 971.24 797.61 968.73 796.58 966.22 795.06 963.94 793.15 962.01 791.23 960.09 788.96 958.57 786.45 957.53 783.95 956.48 781.26 955.95 778.55 955.95H722.61C717.14 955.95 711.89 958.13 708.02 962 704.15 965.87 701.97 971.12 701.96 976.6V976.64H799.16Z" fill="#3c2c5b" opacity="1" stroke-width="4" stroke="#000000"></path></g><g><path d="M555.52 371.87C611.75 371.87 657.34 326.28 657.34 270.05 657.34 213.82 611.75 168.23 555.52 168.23 499.28 168.23 453.7 213.82 453.7 270.05 453.7 326.28 499.28 371.87 555.52 371.87Z" fill="#ffc930" opacity="1" stroke-width="4" stroke="#000000"></path><path d="M555.52 331.37C589.38 331.37 616.84 303.92 616.84 270.05 616.84 236.18 589.38 208.73 555.52 208.73 521.65 208.73 494.2 236.18 494.2 270.05 494.2 303.92 521.65 331.37 555.52 331.37Z" fill="#ffedb9" opacity="1" stroke-width="4" stroke="#000000"></path><path d="M576.34 237.17L555.52 270.05 570.88 289.73" stroke="#000000" stroke-width="4" stroke-linecap="round" stroke-linejoin="round" opacity="1" fill="none"></path></g><g><path d="M1299.7 819.22C1304.33 801.99 1329.54 796.84 1339.91 830.11 1348.94 859.13 1361.69 863.38 1367.51 892.1 1373.03 919.55 1357.14 959.24 1316.41 956.41 1273.52 953.42 1299.7 819.22 1299.7 819.22Z" stroke="#000000" stroke-width="4" stroke-linecap="round" stroke-linejoin="round" opacity="1" fill="none"></path><path d="M1227.38 849.14L1282.46 745.76 1378.6 796.98 1323.51 900.38 1227.38 849.14Z" fill="#ffc930" opacity="1" stroke-width="4" stroke="#000000"></path><path d="M1255.62 759.47H1255.91C1263.87 759.47 1271.5 762.63 1277.11 768.26 1282.74 773.88 1285.9 781.51 1285.9 789.46V817.43H1225.63V789.46C1225.63 781.51 1228.79 773.88 1234.41 768.26 1240.03 762.63 1247.66 759.47 1255.62 759.47V759.47Z" stroke="#000000" stroke-width="4" stroke-linecap="round" stroke-linejoin="round" opacity="1" fill="none"></path><path d="M1195.94 975.9C1191.16 975.89 1186.59 973.99 1183.22 970.62 1179.84 967.24 1177.95 962.67 1177.94 957.9V865.4C1177.92 855.18 1179.92 845.06 1183.82 835.62 1187.73 826.17 1193.45 817.59 1200.68 810.36 1207.9 803.13 1216.48 797.4 1225.91 793.49 1235.36 789.58 1245.47 787.57 1255.69 787.57H1256.36C1276.97 787.59 1296.73 795.8 1311.32 810.37 1325.89 824.95 1334.09 844.71 1334.11 865.32V957.9C1334.11 962.67 1332.21 967.24 1328.83 970.62 1325.46 973.99 1320.89 975.89 1316.11 975.9H1195.94Z" fill="#61ccff" opacity="1" stroke-width="4" stroke="#000000"></path><path d="M1287.02 883.05H1224.88C1214.77 883.05 1206.58 891.24 1206.58 901.35V940.52C1206.58 950.62 1214.77 958.81 1224.88 958.81H1287.02C1297.13 958.81 1305.32 950.62 1305.32 940.52V901.35C1305.32 891.24 1297.13 883.05 1287.02 883.05Z" fill="#61ccff00" opacity="0" stroke-width="4" stroke="#ffffff00"></path><path d="M1287.02 874.85H1224.88C1214.77 874.85 1206.58 883.04 1206.58 893.15V932.31C1206.58 942.42 1214.77 950.61 1224.88 950.61H1287.02C1297.13 950.61 1305.32 942.42 1305.32 932.31V893.15C1305.32 883.04 1297.13 874.85 1287.02 874.85Z" fill="#d69e00" opacity="1" stroke-width="4" stroke="#000000"></path><path d="M1206.61 903.02L1206.58 893.15C1206.59 888.3 1208.52 883.64 1211.95 880.22 1215.38 876.79 1220.03 874.86 1224.88 874.85H1287.02C1291.87 874.86 1296.52 876.79 1299.95 880.22 1303.38 883.64 1305.31 888.3 1305.32 893.15V903.02H1206.61Z" fill="#ffc930" opacity="1" stroke-width="4" stroke="#000000"></path><path d="M1206.61 903.58H1305.37" stroke="#000000" stroke-width="4" stroke-linecap="round" stroke-linejoin="round" opacity="1" fill="none"></path><path d="M1255.99 851.32C1264.24 851.32 1270.93 844.63 1270.93 836.38 1270.93 828.13 1264.24 821.44 1255.99 821.44 1247.74 821.44 1241.05 828.13 1241.05 836.38 1241.05 844.63 1247.74 851.32 1255.99 851.32Z" fill="#ffc930" opacity="1" stroke-width="4" stroke="#000000"></path></g><g><path d="M1455.6 975.2H143.74L143.74 1021.73H1455.6L1455.6 975.2Z" fill="#cecece" opacity="1" stroke-width="4" stroke="#000000"></path></g></svg>